<?xml version="1.0" encoding="utf-8"?>
<!-- Generator: Adobe Illustrator 24.0.1, SVG Export Plug-In . SVG Version: 6.00 Build 0)  -->
<svg version="1.1" xmlns="http://www.w3.org/2000/svg" xmlns:xlink="http://www.w3.org/1999/xlink" x="0px" y="0px"
	 viewBox="0 0 49.6 47.9" style="enable-background:new 0 0 49.6 47.9;" xml:space="preserve">
<style type="text/css">
	.st0{display:none;}
	.st1{display:inline;}
	.st2{fill:#E5E8EC;}
	.st3{fill:#C5E1F9;}
	.st4{fill:none;stroke:#0561FC;stroke-width:5;stroke-miterlimit:10;}
	.st5{fill:#0561FC;}
	.st6{fill:none;stroke:#FFFFFF;stroke-width:3.4127;stroke-miterlimit:10;}
	.st7{fill:#7EB3FF;}
	.st8{fill:none;stroke:#EAF4FE;stroke-width:2;}
	.st9{fill:#B2D2EA;}
	.st10{fill:#EAF4FE;}
	.st11{fill:#FFC400;}
	.st12{fill:none;stroke:#0561FC;stroke-width:2;}
	.st13{fill:none;stroke:#9AC7F7;stroke-width:2;}
	.st14{fill:#0450CF;}
	.st15{fill:none;stroke:#C5E1F9;stroke-width:2;}
	.st16{fill:none;stroke:#282D33;stroke-width:2;}
	.st17{fill:#0561FC;stroke:#0561FC;stroke-width:2;}
	.st18{fill:#7EB3FF;stroke:#7EB3FF;stroke-width:2;}
	.st19{fill:none;stroke:#7EB3FF;stroke-width:2;}
	.st20{fill:#FD2227;}
	.st21{fill:#FFAB01;}
	.st22{fill:none;stroke:#FFFFFF;stroke-width:2;}
	.st23{fill:none;stroke:#0561FC;stroke-width:3.1399;}
	.st24{fill:#FFBF0D;}
	.st25{fill:#9AC7F7;}
	.st26{fill:#34A853;}
	.st27{fill:none;stroke:#0561FC;stroke-width:3.2246;stroke-miterlimit:10;}
	.st28{fill:none;stroke:#0561FC;stroke-width:4.8196;}
	.st29{fill:#EAF4FE;stroke:#0561FC;stroke-width:2;}
	.st30{fill:none;stroke:#0561FC;stroke-width:2;stroke-miterlimit:10;}
	.st31{fill:none;stroke:#EAF4FE;stroke-width:2;stroke-miterlimit:10;}
	.st32{fill:none;stroke:#7EB3FF;stroke-width:3.4127;stroke-miterlimit:10;}
	.st33{fill:none;stroke:#B2D2EA;stroke-width:2;}
	.st34{fill:none;stroke:#0561FC;stroke-width:2.6163;}
	.st35{fill:#0561FC;stroke:#0561FC;stroke-width:2;stroke-miterlimit:10;}
	.st36{fill:none;stroke:#0561FC;stroke-width:5.5196;}
	.st37{fill:#FFFFFF;}
</style>
<g id="Background">
</g>
<g id="Square" class="st0">
	<g class="st1">
		<rect x="1.4" y="-0.3" class="st2" width="48" height="48"/>
	</g>
	<g id="Layer_4" class="st1">
	</g>
</g>
<g id="Icons">
	<g>
		
			<ellipse transform="matrix(0.2298 -0.9732 0.9732 0.2298 -2.6973 55.1915)" class="st3" cx="33.5" cy="29.3" rx="16.1" ry="16.1"/>
		<polyline class="st12" points="26.1,29.1 31.2,34.2 41.7,23.5 		"/>
		<g>
			<g>
				<g>
					<path class="st5" d="M11.2,9.8l-1.5,0.5c-1.4,0.8-2.4,2.3-2.6,4l-1.3,10c-0.1,0.8,0.1,1.6,0.5,2.3l2.4-0.8L8.5,45.6
						c0,1.3,1,2.3,2.2,2.3c1.1,0,2-0.8,2.2-2l1.7-15.5l0.3-13.1L11.2,9.8z"/>
					<path class="st5" d="M17.7,9.8l1.5,0.5c1.4,0.8,2.4,2.3,2.6,4l0.8,6.6c0.1,0.8-0.1,1.6-0.5,2.3l-1.9,2.6l0.2,19.9
						c0,1.3-1,2.3-2.2,2.3c-1.1,0-2-0.8-2.2-2l-1.7-15.5L14,17.3L17.7,9.8z"/>
					<path class="st5" d="M13.6,11.8l-0.2,5.1h2.2l-0.2-5.1c0,0,0.4-0.2,0.4-0.4c0.1-0.4-0.4-1.5-0.4-1.5h-0.8h-0.1h-0.8
						c0,0-0.5,1.1-0.4,1.5C13.2,11.6,13.6,11.8,13.6,11.8z"/>
				</g>
				<path class="st5" d="M14.4,8.7L14.4,8.7c-2,0-3.6-1.6-3.6-3.6V3.6c0-2,1.6-3.6,3.6-3.6l0,0c2,0,3.6,1.6,3.6,3.6v1.5
					C18.1,7.1,16.4,8.7,14.4,8.7z"/>
			</g>
			<path class="st7" d="M14,35h-11c-0.6,0-1-0.5-1-1v-7.6c0-0.6,0.5-1,1-1h11c0.6,0,1,0.5,1,1V34C15,34.5,14.5,35,14,35z"/>
			<path class="st25" d="M12.1,35H1c-0.6,0-1-0.5-1-1v-7.6c0-0.6,0.5-1,1-1h11c0.6,0,1,0.5,1,1V34C13.1,34.5,12.6,35,12.1,35z"/>
		</g>
	</g>
</g>
</svg>
