<?xml version="1.0" encoding="utf-8"?>
<!-- Generator: Adobe Illustrator 24.0.1, SVG Export Plug-In . SVG Version: 6.00 Build 0)  -->
<svg version="1.1" xmlns="http://www.w3.org/2000/svg" xmlns:xlink="http://www.w3.org/1999/xlink" x="0px" y="0px"
	 viewBox="0 0 42.8 47.2" style="enable-background:new 0 0 42.8 47.2;" xml:space="preserve">
<style type="text/css">
	.st0{display:none;}
	.st1{display:inline;}
	.st2{fill:#E5E8EC;}
	.st3{fill:#C5E1F9;}
	.st4{fill:none;stroke:#0561FC;stroke-width:5;stroke-miterlimit:10;}
	.st5{fill:#0561FC;}
	.st6{fill:none;stroke:#FFFFFF;stroke-width:3.4127;stroke-miterlimit:10;}
	.st7{fill:#7EB3FF;}
	.st8{fill:none;stroke:#EAF4FE;stroke-width:2;}
	.st9{fill:#B2D2EA;}
	.st10{fill:#EAF4FE;}
	.st11{fill:#FFC400;}
	.st12{fill:none;stroke:#0561FC;stroke-width:2;}
	.st13{fill:none;stroke:#9AC7F7;stroke-width:2;}
	.st14{fill:#0450CF;}
	.st15{fill:none;stroke:#C5E1F9;stroke-width:2;}
	.st16{fill:none;stroke:#282D33;stroke-width:2;}
	.st17{fill:#0561FC;stroke:#0561FC;stroke-width:2;}
	.st18{fill:#7EB3FF;stroke:#7EB3FF;stroke-width:2;}
	.st19{fill:none;stroke:#7EB3FF;stroke-width:2;}
	.st20{fill:#FD2227;}
	.st21{fill:#FFAB01;}
	.st22{fill:none;stroke:#FFFFFF;stroke-width:2;}
	.st23{fill:none;stroke:#0561FC;stroke-width:3.1399;}
	.st24{fill:#FFBF0D;}
	.st25{fill:#9AC7F7;}
	.st26{fill:#34A853;}
	.st27{fill:none;stroke:#0561FC;stroke-width:3.2246;stroke-miterlimit:10;}
	.st28{fill:none;stroke:#0561FC;stroke-width:4.8196;}
	.st29{fill:#EAF4FE;stroke:#0561FC;stroke-width:2;}
	.st30{fill:none;stroke:#0561FC;stroke-width:2;stroke-miterlimit:10;}
	.st31{fill:none;stroke:#EAF4FE;stroke-width:2;stroke-miterlimit:10;}
	.st32{fill:none;stroke:#7EB3FF;stroke-width:3.4127;stroke-miterlimit:10;}
	.st33{fill:none;stroke:#B2D2EA;stroke-width:2;}
	.st34{fill:none;stroke:#0561FC;stroke-width:2.6163;}
	.st35{fill:#0561FC;stroke:#0561FC;stroke-width:2;stroke-miterlimit:10;}
	.st36{fill:none;stroke:#0561FC;stroke-width:5.5196;}
	.st37{fill:#FFFFFF;}
</style>
<g id="Background">
</g>
<g id="Square" class="st0">
	<g class="st1">
		<rect x="-1.4" y="-2.1" class="st2" width="48" height="48"/>
	</g>
	<g id="Layer_4" class="st1">
	</g>
</g>
<g id="Icons">
	<g>
		<path class="st7" d="M18,42.1c0,0,0-0.7,0-1c0-3.3-2.7-6-6-6c-1.1,0-4.9,0-6,0c-3.3,0-6,2.7-6,6c0,0.3,0,1,0,1H18z"/>
		<circle class="st7" cx="9" cy="28.1" r="4"/>
		<path class="st7" d="M42.8,42.1c0,0,0-0.7,0-1c0-3.3-2.7-6-6-6c-1.1,0-4.9,0-6,0c-3.3,0-6,2.7-6,6c0,0.3,0,1,0,1H42.8z"/>
		<circle class="st7" cx="33.8" cy="28.1" r="4"/>
		<g>
			<path class="st5" d="M30.6,47.2c0,0,0-0.7,0-1c0-3.3-2.7-6-6-6c-1.1,0-4.9,0-6,0c-3.3,0-6,2.7-6,6c0,0.3,0,1,0,1H30.6z"/>
			<circle class="st5" cx="21.6" cy="33.2" r="4"/>
		</g>
		<path class="st7" d="M36.1,20.9H18.9c-3,0-5.5-2.5-5.5-5.5V5.5c0-3,2.5-5.5,5.5-5.5h17.2c3,0,5.5,2.5,5.5,5.5v9.9
			C41.6,18.4,39.1,20.9,36.1,20.9z"/>
		<path class="st7" d="M19,15.2v10.6l8-8C27,17.9,21.2,15.2,19,15.2z"/>
		<polyline class="st22" points="21.9,9.2 25,12.3 31.3,5.9 		"/>
	</g>
</g>
</svg>
